<?xml version="1.0" encoding="UTF-8"?><svg id="Layer_1" xmlns="http://www.w3.org/2000/svg" viewBox="0 0 920.97 173.49"><defs><style>.cls-1{fill:#ffffff;}</style></defs><path class="cls-1" d="m35.78,34.03H0V.72h35.78v33.32ZM0,48.1h35.78v76.75H0V48.1Z"/><path class="cls-1" d="m102.17,77.96v-30.35h75.52c2.3,0,4.65.58,7.03,1.73,2.38,1.15,4.52,2.68,6.42,4.57,1.89,1.89,3.41,4.03,4.57,6.42,1.15,2.39,1.73,4.81,1.73,7.28v37.26c0,2.47-.58,4.9-1.73,7.28-1.15,2.39-2.68,4.53-4.57,6.42-1.89,1.89-4.03,3.42-6.42,4.57-2.39,1.15-4.73,1.73-7.03,1.73H63.42c-2.31,0-4.65-.57-7.03-1.73-2.39-1.15-4.53-2.67-6.42-4.57-1.89-1.89-3.42-4.03-4.57-6.42-1.15-2.38-1.73-4.81-1.73-7.28V20.71c0-2.47.57-4.89,1.73-7.28,1.15-2.38,2.67-4.52,4.57-6.42,1.89-1.89,4.03-3.41,6.42-4.57,2.38-1.15,4.73-1.73,7.03-1.73h134v33.32h-118.21v57.5h82.67v-13.57h-59.72Z"/><path class="cls-1" d="m346.36,1.73c2.38,1.15,4.52,2.68,6.42,4.57,1.89,1.89,3.41,4.03,4.57,6.42,1.15,2.39,1.73,4.81,1.73,7.28v84.15c0,2.47-.58,4.9-1.73,7.28-1.15,2.39-2.68,4.53-4.57,6.42-1.89,1.89-4.03,3.42-6.42,4.57-2.39,1.15-4.73,1.73-7.03,1.73h-114.26c-2.31,0-4.65-.57-7.03-1.73-2.39-1.15-4.53-2.67-6.42-4.57-1.89-1.89-3.42-4.03-4.57-6.42-1.15-2.38-1.73-4.81-1.73-7.28V19.99c0-2.47.57-4.89,1.73-7.28,1.15-2.38,2.67-4.52,4.57-6.42,1.89-1.89,4.03-3.41,6.42-4.57,2.38-1.15,4.73-1.73,7.03-1.73h114.26c2.3,0,4.65.58,7.03,1.73Zm-105.5,31.59v57.5h82.67v-57.5h-82.67Z"/><path class="cls-1" d="m475.55,46.89v-13.57h-108.58V0h124.38c2.3,0,4.65.58,7.03,1.73,2.38,1.15,4.52,2.68,6.42,4.57,1.89,1.89,3.41,4.03,4.57,6.42,1.15,2.39,1.73,4.81,1.73,7.28v37.26c0,2.47-.58,4.9-1.73,7.28-1.15,2.39-2.68,4.53-4.57,6.42-1.89,1.89-4.03,3.42-6.42,4.57-2.39,1.15-4.73,1.73-7.03,1.73h-10.12l69.84,96.25h-39.98l-72.31-96.25h-36.28v46.89h-35.54V46.89h108.58Z"/><path class="cls-1" d="m622.78,33.32h-98.96V0h114.75c2.3,0,4.65.58,7.03,1.73,2.38,1.15,4.52,2.68,6.42,4.57,1.89,1.89,3.41,4.03,4.57,6.42,1.15,2.39,1.73,4.81,1.73,7.28v27.15c2.14.33,4.28,1.11,6.42,2.34,2.14,1.23,4.03,2.76,5.68,4.57,1.64,1.81,2.96,3.83,3.95,6.05s1.48,4.48,1.48,6.79v37.26c0,2.47-.58,4.9-1.73,7.28-1.15,2.39-2.68,4.53-4.57,6.42s-4.03,3.42-6.42,4.57c-2.39,1.15-4.73,1.73-7.03,1.73h-132.28V46.89h98.96v-13.57Zm-63.42,43.93v13.57h80.94v-13.57h-80.94Z"/><path class="cls-1" d="m776.57,42.05c1.61.78,3.06,1.81,4.34,3.09,1.28,1.28,2.31,2.73,3.09,4.34.78,1.61,1.17,3.25,1.17,4.92v56.92c0,1.67-.39,3.31-1.17,4.92-.78,1.61-1.81,3.06-3.09,4.34-1.28,1.28-2.73,2.31-4.34,3.09-1.61.78-3.2,1.17-4.76,1.17h-77.28c-1.56,0-3.15-.39-4.76-1.17-1.61-.78-3.06-1.81-4.34-3.09-1.28-1.28-2.31-2.73-3.09-4.34-.78-1.61-1.17-3.25-1.17-4.92v-56.92c0-1.67.39-3.31,1.17-4.92.78-1.61,1.81-3.06,3.09-4.34s2.73-2.31,4.34-3.09c1.61-.78,3.2-1.17,4.76-1.17h77.28c1.56,0,3.14.39,4.76,1.17Zm-71.36,21.37v38.89h55.92v-38.89h-55.92Z"/><path class="cls-1" d="m840.74,65.97l21.52-24.52h29.86l-36.36,42.03,65.22,75.23h-29.52l-50.71-57.88-21.35,24.52h-29.86l36.2-41.87-36.2-42.03h29.86l21.35,24.52Z"/></svg>